<svg width="113" height="119" viewBox="0 0 113 119" fill="none" xmlns="http://www.w3.org/2000/svg">
<g filter="url(#filter0_d)">
<circle cx="72.1093" cy="46.5781" r="22.5" transform="rotate(41.7145 72.1093 46.5781)" fill="white" fill-opacity="0.01"/>
</g>
<path d="M88.6587 4.97566L108.689 22.831C109.479 23.5354 110.702 23.4528 111.421 22.6465L114.024 19.7268C114.743 18.9205 114.685 17.6959 113.894 16.9915L93.8642 -0.863896C93.074 -1.56827 91.8508 -1.48567 91.1321 -0.679391L88.5294 2.24039C87.8106 3.04666 87.8685 4.27128 88.6587 4.97566Z" fill="#A4B0C0"/>
<path d="M107.783 3.68413C105.413 1.571 102.909 0.511585 102.19 1.31786C101.471 2.12414 102.81 4.49078 105.181 6.60391C107.551 8.71704 110.056 9.77645 110.774 8.97018C111.493 8.1639 110.154 5.79726 107.783 3.68413Z" fill="#A4B0C0"/>
<path d="M41.3831 29.3671C45.2821 24.2066 50.5764 20.2689 56.6167 18.0368C62.657 15.8047 69.1807 15.3753 75.3877 16.8012C76.7298 17.1013 78.1352 17.0304 79.455 16.5958C80.7749 16.1613 81.96 15.3794 82.885 14.333L83.5826 13.5505L100.751 28.8551L100.055 29.6362C99.1219 30.6677 98.4797 31.9276 98.1965 33.2823C97.9134 34.637 98 36.0359 98.447 37.3306C100.346 42.6773 100.815 48.4547 99.8087 54.0963C98.8026 59.7378 96.3557 65.0497 92.708 69.5109C89.0603 73.9721 84.3371 77.4294 79.0017 79.5438C73.6662 81.6581 67.9018 82.3568 62.2737 81.5714C56.6457 80.786 51.3473 78.5434 46.8983 75.0636C42.4493 71.5838 39.0024 66.9863 36.8958 61.7221C34.7893 56.4578 34.0953 50.7076 34.8819 45.0355C35.6686 39.3633 37.9089 33.964 41.3831 29.3671Z" fill="#BFD9D4" fill-opacity="0.75"/>
<path d="M75.3909 16.8063C76.7317 17.1056 78.1356 17.0342 79.4539 16.5998C80.7723 16.1654 81.956 15.3841 82.88 14.3386L83.5827 13.5503L92.6822 21.6618C91.8092 22.552 90.7534 23.2404 89.5913 23.6772C88.4293 24.114 87.19 24.2882 85.9632 24.1872C74.9837 22.7444 63.0681 22.7177 53.7763 29.9555C45.9114 36.5338 40.7155 45.7647 39.2027 55.847C38.6357 58.5512 38.6667 61.3353 39.2935 64.0021C39.9203 66.6689 41.1275 69.1531 42.8295 71.2786C38.1758 66.1075 35.3251 59.546 34.6947 52.554C34.0642 45.562 35.687 38.5063 39.3257 32.4192C42.9643 26.332 48.4279 21.5328 54.9171 18.7236C61.4064 15.9143 68.5808 15.2425 75.3909 16.8063Z" fill="#78A8A0" fill-opacity="0.4"/>
<path d="M82.1518 12.2751L102.182 30.1305C102.972 30.8349 104.195 30.7523 104.914 29.946L107.517 27.0262C108.236 26.2199 108.178 24.9953 107.388 24.2909L87.3573 6.43555C86.5672 5.73117 85.344 5.81378 84.6252 6.62005L82.0225 9.53983C81.3037 10.3461 81.3617 11.5707 82.1518 12.2751Z" fill="#A4B0C0"/>
<path d="M112.464 15.7161L95.2949 0.41148L99.1581 0.150588C100.183 0.081235 101.185 0.422202 101.944 1.09849L111.02 9.18954C111.779 9.86616 112.232 10.8226 112.281 11.8484L112.464 15.7161Z" fill="#D0D7DF"/>
<path d="M88.7881 7.71092L105.957 23.0156L107.258 21.5557L90.0894 6.25104L88.7881 7.71092Z" fill="#D0D7DF"/>
<defs>
<filter id="filter0_d" x="0.341797" y="-25.1894" width="143.535" height="143.535" filterUnits="userSpaceOnUse" color-interpolation-filters="sRGB">
<feFlood flood-opacity="0" result="BackgroundImageFix"/>
<feColorMatrix in="SourceAlpha" type="matrix" values="0 0 0 0 0 0 0 0 0 0 0 0 0 0 0 0 0 0 127 0" result="hardAlpha"/>
<feMorphology radius="15" operator="dilate" in="SourceAlpha" result="effect1_dropShadow"/>
<feOffset/>
<feGaussianBlur stdDeviation="12.5"/>
<feColorMatrix type="matrix" values="0 0 0 0 0.728219 0 0 0 0 0.987464 0 0 0 0 0.987464 0 0 0 0.02 0"/>
<feBlend mode="normal" in2="BackgroundImageFix" result="effect1_dropShadow"/>
<feBlend mode="normal" in="SourceGraphic" in2="effect1_dropShadow" result="shape"/>
</filter>
</defs>
</svg>
