<svg width="125" height="115" viewBox="0 0 125 115" fill="none" xmlns="http://www.w3.org/2000/svg">
<g filter="url(#filter0_d)">
<ellipse cx="68.7804" cy="45.9559" rx="28.5" ry="27.5" transform="rotate(53.5133 68.7804 45.9559)" fill="white"/>
</g>
<path d="M98.9294 6.3483L114.885 27.9222C115.515 28.7732 116.73 28.9418 117.6 28.2987L120.749 25.9697C121.618 25.3265 121.813 24.1152 121.183 23.2642L105.227 1.69032C104.598 0.839252 103.383 0.67069 102.513 1.31382L99.3641 3.64281C98.4946 4.28595 98.2999 5.49723 98.9294 6.3483Z" fill="#A4B0C0"/>
<path d="M117.929 8.98376C116.04 6.43057 113.805 4.88216 112.935 5.52529C112.066 6.16842 112.891 8.75956 114.78 11.3128C116.668 13.866 118.904 15.4144 119.773 14.7712C120.643 14.1281 119.817 11.537 117.929 8.98376Z" fill="#A4B0C0"/>
<path d="M47.6118 20.5971C52.4905 16.3378 58.4851 13.5607 64.8602 12.6063C71.2354 11.652 77.7141 12.5619 83.5017 15.2245C84.7548 15.7921 86.1461 16.0092 87.5282 15.8528C88.9103 15.6964 90.2317 15.1723 91.3527 14.3359L92.1966 13.7118L105.873 32.2037L105.031 32.8267C103.905 33.6467 103.017 34.7497 102.462 36.0188C101.906 37.288 101.704 38.6758 101.876 40.0351C102.638 45.6592 101.912 51.4137 99.7683 56.7342C97.6247 62.0547 94.1373 66.7584 89.6483 70.3841C85.1593 74.0098 79.8228 76.4328 74.1623 77.4156C68.5017 78.3983 62.7115 77.9071 57.3596 75.9899C52.0076 74.0728 47.2778 70.7957 43.6339 66.48C39.9901 62.1643 37.5574 56.9582 36.5744 51.3725C35.5914 45.7867 36.092 40.013 38.027 34.6178C39.9619 29.2225 43.2649 24.391 47.6118 20.5971V20.5971Z" fill="#FFE76A" fill-opacity="0.82"/>
<g style="mix-blend-mode:luminosity">
<path d="M83.5036 15.2302C84.7556 15.7968 86.1455 16.0132 87.5261 15.8566C88.9067 15.7 90.2267 15.1762 91.3464 14.3406L92.1966 13.7118L99.4452 23.5125C98.4073 24.2064 97.2317 24.6654 96.0037 24.8562C94.7757 25.047 93.526 24.9649 92.345 24.6157C81.8858 20.9634 70.2189 18.507 59.6311 23.7011C50.5763 28.5403 43.5916 36.5219 40.04 46.0887C38.9295 48.6217 38.3883 51.3549 38.4549 54.0948C38.5214 56.8347 39.194 59.5141 40.425 61.9431C36.9278 55.929 35.4823 48.9209 36.3 41.9439C37.1177 34.9669 40.1557 28.3871 44.9697 23.167C49.7836 17.947 56.1208 14.3606 63.0543 12.9325C69.9877 11.5044 77.1536 12.3096 83.5036 15.2302V15.2302Z" fill="#F6B445"/>
</g>
<path d="M91.0569 12.1708L107.013 33.7446C107.642 34.5957 108.858 34.7643 109.727 34.1211L112.876 31.7922C113.746 31.149 113.94 29.9377 113.311 29.0867L97.3549 7.5128C96.7254 6.66174 95.5102 6.49317 94.6407 7.13631L91.4917 9.4653C90.6221 10.1084 90.4275 11.3197 91.0569 12.1708Z" fill="#A4B0C0"/>
<path d="M120.044 21.7232L106.367 3.23131L110.205 3.76367C111.223 3.90472 112.134 4.44304 112.739 5.26024L119.969 15.0363C120.574 15.8537 120.822 16.883 120.658 17.8976L120.044 21.7232Z" fill="#D0D7DF"/>
<path d="M98.4945 9.05379L112.171 27.5457L113.746 26.3812L100.069 7.88929L98.4945 9.05379Z" fill="#D0D7DF"/>
<defs>
<filter id="filter0_d" x="0.921265" y="-22.1968" width="135.718" height="136.305" filterUnits="userSpaceOnUse" color-interpolation-filters="sRGB">
<feFlood flood-opacity="0" result="BackgroundImageFix"/>
<feColorMatrix in="SourceAlpha" type="matrix" values="0 0 0 0 0 0 0 0 0 0 0 0 0 0 0 0 0 0 127 0" result="hardAlpha"/>
<feMorphology radius="15" operator="dilate" in="SourceAlpha" result="effect1_dropShadow"/>
<feOffset/>
<feGaussianBlur stdDeviation="12.5"/>
<feColorMatrix type="matrix" values="0 0 0 0 0.987464 0 0 0 0 0.93043 0 0 0 0 0.728219 0 0 0 1 0"/>
<feBlend mode="normal" in2="BackgroundImageFix" result="effect1_dropShadow"/>
<feBlend mode="normal" in="SourceGraphic" in2="effect1_dropShadow" result="shape"/>
</filter>
</defs>
</svg>
