<svg width="119" height="124" viewBox="0 0 119 124" fill="none" xmlns="http://www.w3.org/2000/svg">
<g filter="url(#filter0_d)">
<circle cx="71.9496" cy="51.2937" r="22.5" transform="rotate(42.0106 71.9496 51.2937)" fill="white"/>
</g>
<path d="M94.9332 4.98349L114.871 22.9422C115.657 23.6506 116.882 23.5735 117.606 22.7699L120.227 19.8597C120.951 19.0561 120.9 17.8303 120.114 17.1219L100.176 -0.836836C99.3893 -1.54529 98.1649 -1.46814 97.441 -0.664517L94.8197 2.24565C94.0959 3.04927 94.1467 4.27504 94.9332 4.98349Z" fill="#A4B0C0"/>
<path d="M114.077 3.77726C111.717 1.65191 109.217 0.580436 108.494 1.38406C107.77 2.18768 109.096 4.56208 111.455 6.68743C113.815 8.81279 116.314 9.88426 117.038 9.08064C117.762 8.27702 116.436 5.90262 114.077 3.77726Z" fill="#A4B0C0"/>
<path d="M47.4877 29.1795C51.4191 24.0329 56.7395 20.1162 62.7963 17.9097C68.8531 15.7032 75.3831 15.3029 81.5855 16.7579C82.9266 17.0642 84.3332 16.9995 85.6564 16.5706C86.9795 16.1418 88.1699 15.3646 89.1015 14.3216L89.8041 13.5417L106.894 28.9348L106.192 29.7133C105.253 30.7414 104.603 31.9993 104.311 33.3537C104.02 34.7081 104.099 36.1084 104.538 37.4061C106.407 42.7652 106.843 48.549 105.803 54.1901C104.763 59.8312 102.284 65.1359 98.6082 69.5839C94.9324 74.0319 90.1863 77.4705 84.8354 79.5623C79.4845 81.6541 73.7126 82.3274 68.0859 81.516C62.4591 80.7046 57.1708 78.4365 52.7395 74.9342C48.3082 71.4318 44.8862 66.8154 42.8091 61.5378C40.732 56.2603 40.0711 50.5027 40.8914 44.83C41.7116 39.1573 43.9847 33.7641 47.4877 29.1795Z" fill="#FFE76A" fill-opacity="0.82"/>
<g style="mix-blend-mode:luminosity">
<path d="M81.5884 16.7632C82.9283 17.0686 84.3334 17.0035 85.6551 16.5748C86.9767 16.146 88.1657 15.3695 89.0963 14.3274L89.8041 13.5417L98.8615 21.7C97.9828 22.587 96.9224 23.2712 95.7571 23.7031C94.5918 24.1349 93.3508 24.3037 92.1239 24.1971C81.1464 22.7037 69.224 22.6232 59.8846 29.8244C51.9767 36.3721 46.724 45.5862 45.1514 55.6691C44.5683 58.3726 44.5831 61.1589 45.1947 63.8305C45.8062 66.5021 46.9997 68.9935 48.6903 71.1283C44.064 65.9324 41.25 59.3533 40.66 52.3534C40.07 45.3534 41.7349 38.2999 45.4112 32.2248C49.0875 26.1496 54.5822 21.3715 61.0916 18.5895C67.6011 15.8075 74.7836 15.1675 81.5884 16.7632Z" fill="#F6B445"/>
</g>
<path d="M88.3799 12.2589L108.318 30.2176C109.104 30.9261 110.329 30.8489 111.052 30.0453L113.674 27.1351C114.398 26.3315 114.347 25.1057 113.56 24.3973L93.6225 6.43858C92.836 5.73013 91.6116 5.80728 90.8878 6.6109L88.2665 9.52106C87.5426 10.3247 87.5934 11.5505 88.3799 12.2589Z" fill="#A4B0C0"/>
<path d="M118.689 15.8391L101.6 0.445928L105.467 0.202264C106.493 0.137481 107.493 0.483213 108.249 1.16341L117.283 9.30127C118.038 9.9818 118.487 10.941 118.529 11.9678L118.689 15.8391Z" fill="#D0D7DF"/>
<path d="M95.0467 7.72135L112.136 23.1145L113.447 21.6594L96.3573 6.26626L95.0467 7.72135Z" fill="#D0D7DF"/>
<defs>
<filter id="filter0_d" x="0.173065" y="-20.4828" width="143.553" height="143.553" filterUnits="userSpaceOnUse" color-interpolation-filters="sRGB">
<feFlood flood-opacity="0" result="BackgroundImageFix"/>
<feColorMatrix in="SourceAlpha" type="matrix" values="0 0 0 0 0 0 0 0 0 0 0 0 0 0 0 0 0 0 127 0" result="hardAlpha"/>
<feMorphology radius="15" operator="dilate" in="SourceAlpha" result="effect1_dropShadow"/>
<feOffset/>
<feGaussianBlur stdDeviation="12.5"/>
<feColorMatrix type="matrix" values="0 0 0 0 0.987464 0 0 0 0 0.93043 0 0 0 0 0.728219 0 0 0 1 0"/>
<feBlend mode="normal" in2="BackgroundImageFix" result="effect1_dropShadow"/>
<feBlend mode="normal" in="SourceGraphic" in2="effect1_dropShadow" result="shape"/>
</filter>
</defs>
</svg>
