<svg width="101" height="93" viewBox="0 0 101 93" fill="none" xmlns="http://www.w3.org/2000/svg">
<path d="M75.2671 6.92983L91.6843 28.1548C92.3319 28.9921 93.5495 29.1352 94.4039 28.4744L97.4978 26.0812C98.3522 25.4204 98.5198 24.2059 97.8721 23.3686L81.4549 2.14361C80.8073 1.30631 79.5897 1.16325 78.7353 1.82409L75.6414 4.2172C74.787 4.87804 74.6194 6.09252 75.2671 6.92983Z" fill="#A4B0C0"/>
<path d="M94.3044 9.16645C92.3614 6.65454 90.0938 5.15394 89.2394 5.81478C88.385 6.47562 89.2675 9.04765 91.2104 11.5596C93.1533 14.0715 95.421 15.5721 96.2754 14.9112C97.1297 14.2504 96.2473 11.6784 94.3044 9.16645Z" fill="#A4B0C0"/>
<path d="M24.3209 22.2405C29.0999 17.8823 35.0264 14.982 41.3735 13.8951C47.7206 12.8083 54.2125 13.5822 60.0529 16.1219C61.3173 16.663 62.7118 16.8509 64.0889 16.6657C65.4661 16.4805 66.7745 15.9292 67.8757 15.07L68.7048 14.4287L82.7768 32.6216L81.9491 33.2617C80.8426 34.1047 79.9803 35.2255 79.4536 36.5053C78.9269 37.7851 78.7555 39.1762 78.9576 40.5309C79.8437 46.135 79.2458 51.9006 77.2224 57.262C75.1991 62.6235 71.8198 67.3967 67.416 71.1136C63.0123 74.8304 57.7353 77.3632 52.1026 78.4635C46.47 79.5638 40.6751 79.1939 35.2865 77.39C29.8978 75.586 25.1004 72.4101 21.3648 68.1736C17.6291 63.9371 15.0836 58.7856 13.9778 53.2244C12.8721 47.6632 13.2441 41.8832 15.0573 36.4514C16.8705 31.0196 20.0628 26.1225 24.3209 22.2405Z" fill="#BFD9D4" fill-opacity="0.75"/>
<path d="M60.0551 16.1275C61.3184 16.6675 62.7115 16.8547 64.0872 16.6693C65.4628 16.484 66.7698 15.933 67.8697 15.0746L68.7051 14.4285L76.1632 24.0707C75.1417 24.7859 73.9776 25.2691 72.7552 25.4854C71.5327 25.7017 70.2825 25.6458 69.0951 25.3216C58.5662 21.8903 46.8574 19.6794 36.3962 25.091C27.4585 30.1159 20.6584 38.2378 17.3227 47.8718C16.2696 50.4262 15.7896 53.1688 15.9169 55.9053C16.0441 58.6418 16.7754 61.3053 18.0589 63.7068C14.4321 57.7702 12.8327 50.7973 13.4949 43.8082C14.157 36.8191 17.0458 30.1805 21.7388 24.8636C26.4318 19.5468 32.6826 15.8306 39.5769 14.2587C46.4712 12.6868 53.6472 13.3416 60.0551 16.1275Z" fill="#78A8A0" fill-opacity="0.4"/>
<path d="M67.5322 12.9126L83.9494 34.1376C84.5971 34.9749 85.8147 35.118 86.669 34.4571L89.763 32.064C90.6173 31.4032 90.7849 30.1887 90.1373 29.3514L73.7201 8.12638C73.0724 7.28908 71.8548 7.14603 71.0005 7.80686L67.9065 10.2C67.0521 10.8608 66.8846 12.0753 67.5322 12.9126Z" fill="#A4B0C0"/>
<path d="M96.6995 21.8526L82.6276 3.65967L86.4731 4.11147C87.4931 4.23115 88.4156 4.75004 89.0378 5.55402L96.4771 15.172C97.0989 15.9762 97.3693 16.9996 97.2287 18.0169L96.6995 21.8526Z" fill="#D0D7DF"/>
<path d="M74.8927 9.64244L88.9646 27.8353L90.5116 26.6388L76.4397 8.44589L74.8927 9.64244Z" fill="#D0D7DF"/>
</svg>
